<svg width="149" height="72" viewBox="0 0 149 72" fill="none" xmlns="http://www.w3.org/2000/svg">
<path d="M11.3352 56.2912V71.223H3V36.3139H11.0625V49.848H11.3523C11.9432 48.2344 12.9091 46.973 14.25 46.0639C15.6023 45.1548 17.2557 44.7003 19.2102 44.7003C21.0511 44.7003 22.6534 45.1094 24.017 45.9276C25.3807 46.7344 26.4375 47.8764 27.1875 49.3537C27.9489 50.831 28.3239 52.5582 28.3125 54.5355V71.223H19.9773V56.1719C19.9886 54.7173 19.625 53.581 18.8864 52.7628C18.1477 51.9446 17.108 51.5355 15.767 51.5355C14.892 51.5355 14.1193 51.7287 13.4489 52.1151C12.7898 52.4901 12.2727 53.0298 11.8977 53.7344C11.5341 54.4389 11.3466 55.2912 11.3352 56.2912Z" fill="white"/>
<path d="M40.8963 71.6662C39.2259 71.6662 37.7429 71.3878 36.4474 70.831C35.1634 70.2628 34.1463 69.4105 33.3963 68.2742C32.6577 67.1264 32.2884 65.6889 32.2884 63.9617C32.2884 62.5071 32.544 61.2798 33.0554 60.2798C33.5668 59.2798 34.2713 58.4673 35.169 57.8423C36.0668 57.2173 37.1009 56.7457 38.2713 56.4276C39.4418 56.098 40.6918 55.8764 42.0213 55.7628C43.5099 55.6264 44.7088 55.4844 45.6179 55.3367C46.527 55.1776 47.1861 54.956 47.5952 54.6719C48.0156 54.3764 48.2259 53.9617 48.2259 53.4276V53.3423C48.2259 52.4673 47.9247 51.7912 47.3224 51.3139C46.7202 50.8367 45.9077 50.598 44.8849 50.598C43.7827 50.598 42.8963 50.8367 42.2259 51.3139C41.5554 51.7912 41.1293 52.4503 40.9474 53.2912L33.2599 53.0185C33.4872 51.4276 34.0724 50.0071 35.0156 48.7571C35.9702 47.4957 37.277 46.5071 38.9361 45.7912C40.6065 45.0639 42.6122 44.7003 44.9531 44.7003C46.6236 44.7003 48.1634 44.8992 49.5724 45.2969C50.9815 45.6832 52.2088 46.2514 53.2543 47.0014C54.2997 47.7401 55.1065 48.6491 55.6747 49.7287C56.2543 50.8082 56.544 52.0412 56.544 53.4276V71.223H48.7031V67.5753H48.4986C48.0327 68.4617 47.4361 69.2117 46.7088 69.8253C45.9929 70.4389 45.1463 70.8992 44.169 71.206C43.2031 71.5128 42.1122 71.6662 40.8963 71.6662ZM43.4702 66.2117C44.3679 66.2117 45.1747 66.0298 45.8906 65.6662C46.6179 65.3026 47.1974 64.8026 47.6293 64.1662C48.0611 63.5185 48.277 62.7685 48.277 61.9162V59.4276C48.0384 59.5526 47.7486 59.6662 47.4077 59.7685C47.0781 59.8707 46.7145 59.9673 46.3168 60.0582C45.919 60.1492 45.5099 60.2287 45.0895 60.2969C44.669 60.3651 44.2656 60.4276 43.8793 60.4844C43.0952 60.6094 42.4247 60.8026 41.8679 61.0639C41.3224 61.3253 40.902 61.6662 40.6065 62.0867C40.3224 62.4957 40.1804 62.9844 40.1804 63.5526C40.1804 64.4162 40.4872 65.0753 41.1009 65.5298C41.7259 65.9844 42.5156 66.2117 43.4702 66.2117Z" fill="white"/>
<path d="M61.6406 71.223V36.3139H69.9759V49.5242H70.1463C70.4872 48.7287 70.9702 47.9617 71.5952 47.223C72.2315 46.4844 73.0384 45.8821 74.0156 45.4162C75.0043 44.9389 76.1861 44.7003 77.5611 44.7003C79.3793 44.7003 81.0781 45.1776 82.6577 46.1321C84.2486 47.0866 85.5327 48.5582 86.5099 50.5469C87.4872 52.5355 87.9759 55.0696 87.9759 58.1492C87.9759 61.1151 87.5043 63.598 86.5611 65.598C85.6293 67.598 84.3679 69.098 82.777 70.098C81.1974 71.098 79.4418 71.598 77.5099 71.598C76.1918 71.598 75.0497 71.3821 74.0838 70.9503C73.1179 70.5185 72.3054 69.9503 71.6463 69.2457C70.9986 68.5412 70.4986 67.7855 70.1463 66.9787H69.8906V71.223H61.6406ZM69.8054 58.1321C69.8054 59.5412 69.9929 60.7685 70.3679 61.8139C70.7543 62.8594 71.3054 63.6719 72.0213 64.2514C72.7486 64.8196 73.6179 65.1037 74.6293 65.1037C75.652 65.1037 76.5213 64.8196 77.2372 64.2514C77.9531 63.6719 78.4929 62.8594 78.8565 61.8139C79.2315 60.7685 79.419 59.5412 79.419 58.1321C79.419 56.723 79.2315 55.5014 78.8565 54.4673C78.4929 53.4332 77.9531 52.6321 77.2372 52.0639C76.5327 51.4957 75.6634 51.2117 74.6293 51.2117C73.6065 51.2117 72.7372 51.4901 72.0213 52.0469C71.3054 52.6037 70.7543 53.3992 70.3679 54.4332C69.9929 55.4673 69.8054 56.7003 69.8054 58.1321Z" fill="white"/>
<path d="M92.3438 71.223V45.0412H100.679V71.223H92.3438ZM96.5199 41.9901C95.3494 41.9901 94.3438 41.6037 93.5028 40.831C92.6619 40.0469 92.2415 39.1037 92.2415 38.0014C92.2415 36.9105 92.6619 35.9787 93.5028 35.206C94.3438 34.4219 95.3494 34.0298 96.5199 34.0298C97.7017 34.0298 98.7074 34.4219 99.5369 35.206C100.378 35.9787 100.798 36.9105 100.798 38.0014C100.798 39.1037 100.378 40.0469 99.5369 40.831C98.7074 41.6037 97.7017 41.9901 96.5199 41.9901Z" fill="white"/>
<path d="M120.763 45.0412V51.1776H104.246V45.0412H120.763ZM107.706 38.7685H116.041V62.9901C116.041 63.5014 116.121 63.9162 116.28 64.2344C116.45 64.5412 116.695 64.7628 117.013 64.8992C117.331 65.0242 117.712 65.0867 118.155 65.0867C118.473 65.0867 118.808 65.0582 119.161 65.0014C119.524 64.9332 119.797 64.8764 119.979 64.831L121.24 70.848C120.842 70.9617 120.28 71.1037 119.553 71.2742C118.837 71.4446 117.979 71.5526 116.979 71.598C115.024 71.6889 113.348 71.4617 111.95 70.9162C110.564 70.3594 109.501 69.4957 108.763 68.3253C108.036 67.1548 107.683 65.6832 107.706 63.9105V38.7685Z" fill="white"/>
<path d="M147.545 53.0355L139.892 53.2401C139.812 52.6946 139.597 52.2117 139.244 51.7912C138.892 51.3594 138.432 51.0242 137.864 50.7855C137.307 50.5355 136.659 50.4105 135.92 50.4105C134.955 50.4105 134.131 50.6037 133.449 50.9901C132.778 51.3764 132.449 51.8992 132.46 52.5582C132.449 53.0696 132.653 53.5128 133.074 53.8878C133.506 54.2628 134.273 54.5639 135.375 54.7912L140.42 55.7457C143.034 56.2457 144.977 57.0753 146.25 58.2344C147.534 59.3935 148.182 60.9276 148.193 62.8367C148.182 64.6321 147.648 66.1946 146.591 67.5242C145.545 68.8537 144.114 69.8878 142.295 70.6264C140.477 71.3537 138.398 71.7173 136.057 71.7173C132.318 71.7173 129.369 70.9503 127.21 69.4162C125.062 67.8707 123.835 65.8026 123.528 63.2117L131.761 63.0071C131.943 63.9617 132.415 64.6889 133.176 65.1889C133.938 65.6889 134.909 65.9389 136.091 65.9389C137.159 65.9389 138.028 65.7401 138.699 65.3423C139.369 64.9446 139.71 64.4162 139.722 63.7571C139.71 63.1662 139.449 62.6946 138.938 62.3423C138.426 61.9787 137.625 61.6946 136.534 61.4901L131.966 60.6207C129.341 60.1435 127.386 59.2628 126.102 57.9787C124.818 56.6832 124.182 55.0355 124.193 53.0355C124.182 51.2855 124.648 49.7912 125.591 48.5526C126.534 47.3026 127.875 46.348 129.614 45.6889C131.352 45.0298 133.403 44.7003 135.767 44.7003C139.312 44.7003 142.108 45.4446 144.153 46.9332C146.199 48.4105 147.33 50.4446 147.545 53.0355Z" fill="white"/>
<rect x="0.5" y="0.782669" width="15" height="15" rx="3.5" fill="#18181B" stroke="#27272A"/>
<rect x="20.5" y="0.782669" width="15" height="15" rx="3.5" fill="#4C1D95" stroke="#6D28D9"/>
<rect x="40.5" y="0.782669" width="15" height="15" rx="3.5" fill="#5B21B6" stroke="#7C3AED"/>
<rect x="60.5" y="0.782669" width="15" height="15" rx="3.5" fill="#6D28D9" stroke="#8B5CF6"/>
<rect x="80.5" y="0.782669" width="15" height="15" rx="3.5" fill="#7C3AED" stroke="#A78BFA"/>
<rect x="100.5" y="0.782669" width="15" height="15" rx="3.5" fill="#8B5CF6" stroke="#C4B5FD"/>
</svg>
